FILE "circa1980.mp3" MP3

	TRACK 1 AUDIO
		PERFORMER "Westworld"
		TITLE "(Dialogue)"
		REM DATE 1973
		INDEX 01 0:00:00

	TRACK 2 AUDIO
		PERFORMER "Kraftwerk"
		TITLE "Antenna"
		REM DATE 1975
		INDEX 01 0:20:00

	TRACK 3 AUDIO
		PERFORMER "Dexter Wansel"
		TITLE "Life On Mars"
		REM DATE 1976
		INDEX 01 1:44:00

	TRACK 4 AUDIO
		PERFORMER "Donna Summer"
		TITLE "Working the Midnight Shift"
		REM DATE 1977
		INDEX 01 3:03:00

	TRACK 5 AUDIO
		PERFORMER "Peter Moesser's Music"
		TITLE "High"
		REM DATE 1977
		INDEX 01 4:20:00

	TRACK 6 AUDIO
		PERFORMER "The Human League"
		TITLE "Dance Like A Star"
		REM DATE 1977
		INDEX 01 5:04:00

	TRACK 7 AUDIO
		PERFORMER "Belle Epoque"
		TITLE "Bamalama"
		REM DATE 1977
		INDEX 01 6:07:00

	TRACK 8 AUDIO
		PERFORMER "Electronic System"
		TITLE "Fly To Venus"
		REM DATE 1977
		INDEX 01 7:29:00

	TRACK 9 AUDIO
		PERFORMER "Supermax"
		TITLE "Musicexpress"
		REM DATE 1977
		INDEX 01 8:31:00

	TRACK 10 AUDIO
		PERFORMER "Giorgio Moroder"
		TITLE "Lost Angeles"
		REM DATE 1977
		INDEX 01 9:17:00

	TRACK 11 AUDIO
		PERFORMER "Cerrone"
		TITLE "Supernature"
		REM DATE 1977
		INDEX 01 10:41:00

	TRACK 12 AUDIO
		PERFORMER "Laurie Marshall"
		TITLE "Disco Spaceship"
		REM DATE 1977
		INDEX 01 11:52:00

	TRACK 13 AUDIO
		PERFORMER "That Thing"
		TITLE "That Thing"
		REM DATE 1977
		INDEX 01 13:19:00

	TRACK 14 AUDIO
		PERFORMER "Jan Hammer Group"
		TITLE "Don't You Know"
		REM DATE 1977
		INDEX 01 14:28:00

	TRACK 15 AUDIO
		PERFORMER "Demon Seed"
		TITLE "(Dialogue)"
		REM DATE 1977
		INDEX 01 15:52:00

	TRACK 16 AUDIO
		PERFORMER "Frederic Mercier"
		TITLE "Storm"
		REM DATE 1978
		INDEX 01 16:50:00

	TRACK 17 AUDIO
		PERFORMER "Falcons"
		TITLE "Perdido En El Universo"
		REM DATE 1978
		INDEX 01 17:47:00

	TRACK 18 AUDIO
		PERFORMER "Su Kramer"
		TITLE "Magic"
		REM DATE 1978
		INDEX 01 19:12:00

	TRACK 19 AUDIO
		PERFORMER "Galaxis"
		TITLE "I Want More"
		REM DATE 1978
		INDEX 01 20:37:00

	TRACK 20 AUDIO
		PERFORMER "Queen Samantha"
		TITLE "Take A Chance"
		REM DATE 1978
		INDEX 01 21:52:00

	TRACK 21 AUDIO
		PERFORMER "Space Art"
		TITLE "Nous Savons Tout"
		REM DATE 1978
		INDEX 01 23:11:00

	TRACK 22 AUDIO
		PERFORMER "Ritchie Family"
		TITLE "American Generation"
		REM DATE 1978
		INDEX 01 24:28:00

	TRACK 23 AUDIO
		PERFORMER "Black Devil Disco Club"
		TITLE "One to Choose"
		REM DATE 1978
		INDEX 01 26:00:00

	TRACK 24 AUDIO
		PERFORMER "Paradise Frame"
		TITLE "Love Is The Natural Way"
		REM DATE 1978
		INDEX 01 27:18:00

	TRACK 25 AUDIO
		PERFORMER "Eberhard Schoener"
		TITLE "Why Don't You Answer"
		REM DATE 1978
		INDEX 01 28:47:00

	TRACK 26 AUDIO
		PERFORMER "Pussyfoot"
		TITLE "Dancer Dance"
		REM DATE 1978
		INDEX 01 30:02:00

	TRACK 27 AUDIO
		PERFORMER "Crown Heights Affair"
		TITLE "Galaxy Of Love"
		REM DATE 1978
		INDEX 01 31:09:00

	TRACK 28 AUDIO
		PERFORMER "Sarah Brightman And Hot Gossip"
		TITLE "I Lost My Heart To A Starship Trooper"
		REM DATE 1978
		INDEX 01 32:34:00

	TRACK 29 AUDIO
		PERFORMER "Transvolta"
		TITLE "You Are Disco"
		REM DATE 1978
		INDEX 01 33:34:00

	TRACK 30 AUDIO
		PERFORMER "Colorado"
		TITLE "Space Lady Love"
		REM DATE 1978
		INDEX 01 34:33:00

	TRACK 31 AUDIO
		PERFORMER "Whizz!!"
		TITLE "Do You Hear Me"
		REM DATE 1978
		INDEX 01 35:54:00

	TRACK 32 AUDIO
		PERFORMER "Rene Riche & Her Cosmic Band"
		TITLE "Love In Space"
		REM DATE 1978
		INDEX 01 37:15:00

	TRACK 33 AUDIO
		PERFORMER "Steelcream"
		TITLE "Ten Hertz Pt.1"
		REM DATE 1978
		INDEX 01 38:11:00

	TRACK 34 AUDIO
		PERFORMER "Constellation Orchestra"
		TITLE "Cosmic Melody"
		REM DATE 1978
		INDEX 01 39:34:00

	TRACK 35 AUDIO
		PERFORMER "Ganymed"
		TITLE "It Takes Me Higher"
		REM DATE 1978
		INDEX 01 41:03:00

	TRACK 36 AUDIO
		PERFORMER "Boney M"
		TITLE "Nightflight To Venus"
		REM DATE 1978
		INDEX 01 42:25:00

	TRACK 37 AUDIO
		PERFORMER "Orlando Riva Sound"
		TITLE "Moon Boots"
		REM DATE 1978
		INDEX 01 43:35:00

	TRACK 38 AUDIO
		PERFORMER "Invasion of the Body Snatchers"
		TITLE "(Dialogue)"
		REM DATE 1978
		INDEX 01 44:36:00

	TRACK 39 AUDIO
		PERFORMER "Amanda Lear"
		TITLE "Follow Me"
		REM DATE 1978
		INDEX 01 45:36:00

	TRACK 40 AUDIO
		PERFORMER "Dee D. Jackson"
		TITLE "Automatic Lover"
		REM DATE 1978
		INDEX 01 47:04:00

	TRACK 41 AUDIO
		PERFORMER "Constellation Orchestra"
		TITLE "Dancing Angel"
		REM DATE 1978
		INDEX 01 48:32:00

	TRACK 42 AUDIO
		PERFORMER "Peter Jacques Band"
		TITLE "Fly With The Wind"
		REM DATE 1978
		INDEX 01 50:00:00

	TRACK 43 AUDIO
		PERFORMER "Moebius"
		TITLE "Mirror of Infinity"
		REM DATE 1979
		INDEX 01 51:25:00

	TRACK 44 AUDIO
		PERFORMER "Chrisma"
		TITLE "Gott Gott Electron"
		REM DATE 1979
		INDEX 01 52:26:00

	TRACK 45 AUDIO
		PERFORMER "Yellow Magic Orchestra"
		TITLE "Technopolis"
		REM DATE 1979
		INDEX 01 53:52:00

	TRACK 46 AUDIO
		PERFORMER "Blondie"
		TITLE "Atomic"
		REM DATE 1979
		INDEX 01 54:51:00

	TRACK 47 AUDIO
		PERFORMER "Easy Going"
		TITLE "Fear"
		REM DATE 1979
		INDEX 01 56:05:00

	TRACK 48 AUDIO
		PERFORMER "Bamboo"
		TITLE "Travelling Through Space And Time"
		REM DATE 1979
		INDEX 01 57:36:00

	TRACK 49 AUDIO
		PERFORMER "Tantra"
		TITLE "The Hills Of Katmandu"
		REM DATE 1979
		INDEX 01 59:06:00

	TRACK 50 AUDIO
		PERFORMER "Ströer"
		TITLE "Don't Stay For Breakfast"
		REM DATE 1979
		INDEX 01 60:37:00

	TRACK 51 AUDIO
		PERFORMER "Sylvia Love"
		TITLE "Instant Love"
		REM DATE 1979
		INDEX 01 61:51:00

	TRACK 52 AUDIO
		PERFORMER "Japan"
		TITLE "Quiet Life"
		REM DATE 1979
		INDEX 01 63:09:00

	TRACK 53 AUDIO
		PERFORMER "Sahara"
		TITLE "I Just Wanna Dance"
		REM DATE 1979
		INDEX 01 64:33:00

	TRACK 54 AUDIO
		PERFORMER "Hans Edler"
		TITLE "Feeling Down"
		REM DATE 1979
		INDEX 01 65:22:00

	TRACK 55 AUDIO
		PERFORMER "Telex"
		TITLE "Moskow Diskow"
		REM DATE 1979
		INDEX 01 66:25:00

	TRACK 56 AUDIO
		PERFORMER "Hideki Matsutake"
		TITLE "On Her Majesty's Secret Service"
		REM DATE 1979
		INDEX 01 67:47:00

	TRACK 57 AUDIO
		PERFORMER "Oliver's Planet"
		TITLE "Dance Machine"
		REM DATE 1979
		INDEX 01 68:25:00

	TRACK 58 AUDIO
		PERFORMER "Buck Rogers In The 25th Century"
		TITLE "(Dialogue)"
		REM DATE 1979
		INDEX 01 69:34:00

	TRACK 59 AUDIO
		PERFORMER "Blush"
		TITLE "Lift Off"
		REM DATE 1979
		INDEX 01 70:10:00

	TRACK 60 AUDIO
		PERFORMER "Player [1]"
		TITLE "Space Invaders"
		REM DATE 1979
		INDEX 01 71:40:00

	TRACK 61 AUDIO
		PERFORMER "Miriam Stockley"
		TITLE "Disco Queen Of Venus"
		REM DATE 1979
		INDEX 01 72:56:00

	TRACK 62 AUDIO
		PERFORMER "Sparks"
		TITLE "Tryouts For The Human Race"
		REM DATE 1979
		INDEX 01 73:39:00

	TRACK 63 AUDIO
		PERFORMER "Alex Cima"
		TITLE "Au Reve"
		REM DATE 1979
		INDEX 01 74:44:00

	TRACK 64 AUDIO
		PERFORMER "Bombers"
		TITLE "Disco Galaxy"
		REM DATE 1979
		INDEX 01 75:59:00

	TRACK 65 AUDIO
		PERFORMER "Suzi Lane"
		TITLE "Harmony"
		REM DATE 1979
		INDEX 01 77:06:00

	TRACK 66 AUDIO
		PERFORMER "Gary Numan"
		TITLE "Metal"
		REM DATE 1979
		INDEX 01 78:35:00

	TRACK 67 AUDIO
		PERFORMER "Trepidants"
		TITLE "Robot"
		REM DATE 1979
		INDEX 01 80:00:00

	TRACK 68 AUDIO
		PERFORMER "Ralph Lundsten"
		TITLE "Horrorscope"
		REM DATE 1979
		INDEX 01 80:40:00

	TRACK 69 AUDIO
		PERFORMER "Wolfgang Maus Soundpicture"
		TITLE "Time and Space"
		REM DATE 1979
		INDEX 01 81:38:00

	TRACK 70 AUDIO
		PERFORMER "Supersempfft"
		TITLE "Let's Beam Him Up"
		REM DATE 1979
		INDEX 01 82:52:00

	TRACK 71 AUDIO
		PERFORMER "Gina X"
		TITLE "Nice Mover"
		REM DATE 1979
		INDEX 01 84:06:00

	TRACK 72 AUDIO
		PERFORMER "Tamiko Jones"
		TITLE "Can't Live Without Your Love"
		REM DATE 1979
		INDEX 01 85:28:00

	TRACK 73 AUDIO
		PERFORMER "Adolf Stern"
		TITLE "More... I Like It"
		REM DATE 1979
		INDEX 01 86:37:00

	TRACK 74 AUDIO
		PERFORMER "Daddy Dewdrop"
		TITLE "The Real Thing"
		REM DATE 1979
		INDEX 01 87:43:00

	TRACK 75 AUDIO
		PERFORMER "The Bach Revolution"
		TITLE "D.E. 108"
		REM DATE 1979
		INDEX 01 89:05:00

	TRACK 76 AUDIO
		PERFORMER "The Units"
		TITLE "High Pressure Days"
		REM DATE 1979
		INDEX 01 90:00:00

	TRACK 77 AUDIO
		PERFORMER "Alien"
		TITLE "(Dialogue)"
		REM DATE 1979
		INDEX 01 91:23:00

	TRACK 78 AUDIO
		PERFORMER "Kovács Kati"
		TITLE "Kérdés Önmagamhoz"
		REM DATE 1980
		INDEX 01 92:37:00

	TRACK 79 AUDIO
		PERFORMER "Zoom"
		TITLE "Delta Flight"
		REM DATE 1980
		INDEX 01 93:43:00

	TRACK 80 AUDIO
		PERFORMER "Rockets"
		TITLE "Galactica"
		REM DATE 1980
		INDEX 01 94:53:00

	TRACK 81 AUDIO
		PERFORMER "G. G. Tonet"
		TITLE "Dedicated To Norbert Wiener"
		REM DATE 1980
		INDEX 01 95:59:00

	TRACK 82 AUDIO
		PERFORMER "Yello"
		TITLE "Eternal Legs"
		REM DATE 1980
		INDEX 01 97:21:00

	TRACK 83 AUDIO
		PERFORMER "Herb Alpert"
		TITLE "Beyond"
		REM DATE 1980
		INDEX 01 98:40:00

	TRACK 84 AUDIO
		PERFORMER "Gino Soccio"
		TITLE "Rythm Of The World"
		REM DATE 1980
		INDEX 01 99:51:00

	TRACK 85 AUDIO
		PERFORMER "Methusalem"
		TITLE "Zombie"
		REM DATE 1980
		INDEX 01 101:16:00

	TRACK 86 AUDIO
		PERFORMER "Kat Mandu"
		TITLE "Time To Get Down"
		REM DATE 1980
		INDEX 01 102:24:00

	TRACK 87 AUDIO
		PERFORMER "Lipps Inc"
		TITLE "How Long"
		REM DATE 1980
		INDEX 01 103:49:00

	TRACK 88 AUDIO
		PERFORMER "Ronnie Jones"
		TITLE "Video Games"
		REM DATE 1980
		INDEX 01 105:08:00

	TRACK 89 AUDIO
		PERFORMER "Lio"
		TITLE "Comix Discomix"
		REM DATE 1980
		INDEX 01 106:28:00

	TRACK 90 AUDIO
		PERFORMER "Breakwater"
		TITLE "Splashdown"
		REM DATE 1980
		INDEX 01 107:36:00

	TRACK 91 AUDIO
		PERFORMER "Sandii"
		TITLE "Drip Dry Eyes"
		REM DATE 1980
		INDEX 01 109:01:00

	TRACK 92 AUDIO
		PERFORMER "Zaine Griff"
		TITLE "The Scandinavian"
		REM DATE 1980
		INDEX 01 110:19:00

	TRACK 93 AUDIO
		PERFORMER "Outland"
		TITLE "(Dialogue)"
		REM DATE 1981
		INDEX 01 111:46:00

	TRACK 94 AUDIO
		PERFORMER "Electronic Circus"
		TITLE "Direct Lines"
		REM DATE 1981
		INDEX 01 112:54:00

	TRACK 95 AUDIO
		PERFORMER "Love International"
		TITLE "Airport Of Love"
		REM DATE 1981
		INDEX 01 114:12:00

	TRACK 96 AUDIO
		PERFORMER "Logic System"
		TITLE "Person to Person"
		REM DATE 1981
		INDEX 01 115:50:00

	TRACK 97 AUDIO
		PERFORMER "Teddy Lasry"
		TITLE "Challenger"
		REM DATE 1981
		INDEX 01 116:56:00

	TRACK 98 AUDIO
		PERFORMER "Supersempfft"
		TITLE "I See Stars"
		REM DATE 1981
		INDEX 01 117:55:00

	TRACK 99 AUDIO
		PERFORMER "KID"
		TITLE "Don't Stop"
		REM DATE 1981
		INDEX 01 119:12:00

	TRACK 100 AUDIO
		PERFORMER "Chocolate Milk"
		TITLE "Video Queen"
		REM DATE 1981
		INDEX 01 120:35:00

	TRACK 101 AUDIO
		PERFORMER "New Paradise"
		TITLE "I Love Video"
		REM DATE 1981
		INDEX 01 121:56:00

	TRACK 102 AUDIO
		PERFORMER "Pluton & Humanoids"
		TITLE "World Invaders"
		REM DATE 1981
		INDEX 01 123:21:00

	TRACK 103 AUDIO
		PERFORMER "Kuruki"
		TITLE "Crocodile Tears"
		REM DATE 1981
		INDEX 01 124:21:00

	TRACK 104 AUDIO
		PERFORMER "Crypton"
		TITLE "Movin' On"
		REM DATE 1981
		INDEX 01 125:48:00

	TRACK 105 AUDIO
		PERFORMER "Patrick Cowley"
		TITLE "Lift Off"
		REM DATE 1981
		INDEX 01 126:33:00

	TRACK 106 AUDIO
		PERFORMER "Angela Werner"
		TITLE "Aus und Vorbei"
		REM DATE 1981
		INDEX 01 127:35:00

	TRACK 107 AUDIO
		PERFORMER "Nacht Und Nebel"
		TITLE "Robot Robot"
		REM DATE 1981
		INDEX 01 128:57:00

	TRACK 108 AUDIO
		PERFORMER "Space Shuttle, Mission to the Future"
		TITLE "(Dialogue)"
		REM DATE 1981
		INDEX 01 130:13:00

	TRACK 109 AUDIO
		PERFORMER "Data"
		TITLE "Opera Electronica"
		REM DATE 1981
		INDEX 01 131:09:00

	TRACK 110 AUDIO
		PERFORMER "Kraftwerk"
		TITLE "Computer World"
		REM DATE 1981
		INDEX 01 132:36:00

	TRACK 111 AUDIO
		PERFORMER "Tonic"
		TITLE "Marylin En Jean"
		REM DATE 1981
		INDEX 01 133:55:00

	TRACK 112 AUDIO
		PERFORMER "Karoll"
		TITLE "You Name It, You'll Get It"
		REM DATE 1981
		INDEX 01 135:14:00

	TRACK 113 AUDIO
		PERFORMER "Duran Duran"
		TITLE "Planet Earth"
		REM DATE 1981
		INDEX 01 136:47:00

	TRACK 114 AUDIO
		PERFORMER "Keith Mansfield"
		TITLE "Cyclotron"
		REM DATE 1981
		INDEX 01 138:02:00

	TRACK 115 AUDIO
		PERFORMER "New Musik"
		TITLE "Churches"
		REM DATE 1981
		INDEX 01 138:55:00

	TRACK 116 AUDIO
		PERFORMER "Comix"
		TITLE "Walkman Video"
		REM DATE 1981
		INDEX 01 140:22:00

	TRACK 117 AUDIO
		PERFORMER "The Twins"
		TITLE "Synthetic World"
		REM DATE 1981
		INDEX 01 141:39:00

	TRACK 118 AUDIO
		PERFORMER "Soft Cell"
		TITLE "Sex Dwarf"
		REM DATE 1981
		INDEX 01 143:01:00

	TRACK 119 AUDIO
		PERFORMER "Devo"
		TITLE "Out of Sync"
		REM DATE 1982
		INDEX 01 144:08:00

	TRACK 120 AUDIO
		PERFORMER "Spoons"
		TITLE "Nova Heart"
		REM DATE 1982
		INDEX 01 145:22:00

	TRACK 121 AUDIO
		PERFORMER "Angela Werner"
		TITLE "Du"
		REM DATE 1982
		INDEX 01 146:37:00

	TRACK 122 AUDIO
		PERFORMER "Tron"
		TITLE "(Dialogue)"
		REM DATE 1982
		INDEX 01 147:59:00

	TRACK 123 AUDIO
		PERFORMER "Jean-Stephan Regottaz"
		TITLE "Mirage"
		REM DATE 1982
		INDEX 01 148:38:00

	TRACK 124 AUDIO
		PERFORMER "Berlin"
		TITLE "Sex"
		REM DATE 1982
		INDEX 01 149:54:00

	TRACK 125 AUDIO
		PERFORMER "Flashgun Connection"
		TITLE "Where Are You Now"
		REM DATE 1982
		INDEX 01 151:00:00

	TRACK 126 AUDIO
		PERFORMER "Flashgun Connection"
		TITLE "Land of the Tigerdrums"
		REM DATE 1982
		INDEX 01 152:17:00

	TRACK 127 AUDIO
		PERFORMER "Donna Summer"
		TITLE "Love Is In Control"
		REM DATE 1982
		INDEX 01 152:55:00

	TRACK 128 AUDIO
		PERFORMER "Thomas Dolby"
		TITLE "She Blinded Me With Science"
		REM DATE 1982
		INDEX 01 154:16:00

	TRACK 129 AUDIO
		PERFORMER "Neil Young"
		TITLE "Computer Age"
		REM DATE 1982
		INDEX 01 155:36:00

	TRACK 130 AUDIO
		PERFORMER "New Order"
		TITLE "586"
		REM DATE 1982
		INDEX 01 157:03:00

	TRACK 131 AUDIO
		PERFORMER "Harry Thumann"
		TITLE "Sphinx"
		REM DATE 1982
		INDEX 01 158:18:00

	TRACK 132 AUDIO
		PERFORMER "Chiemi Manabe"
		TITLE "うんととおく"
		REM DATE 1982
		INDEX 01 159:42:00

	TRACK 133 AUDIO
		PERFORMER "Codek"
		TITLE "Closer"
		REM DATE 1982
		INDEX 01 161:05:00

	TRACK 134 AUDIO
		PERFORMER "Q"
		TITLE "The Voice of Q"
		REM DATE 1982
		INDEX 01 162:29:00

	TRACK 135 AUDIO
		PERFORMER "The Creatures"
		TITLE "Machine's Drama"
		REM DATE 1982
		INDEX 01 163:57:00

	TRACK 136 AUDIO
		PERFORMER "Taco"
		TITLE "Livin' In My Dreamworld"
		REM DATE 1982
		INDEX 01 165:02:00

	TRACK 137 AUDIO
		PERFORMER "Louise Tucker"
		TITLE "Waiting For Hugo"
		REM DATE 1982
		INDEX 01 166:21:00

	TRACK 138 AUDIO
		PERFORMER "Stereo"
		TITLE "Somewhere in the Night"
		REM DATE 1982
		INDEX 01 167:22:00

	TRACK 139 AUDIO
		PERFORMER "Yazoo"
		TITLE "Situation"
		REM DATE 1982
		INDEX 01 168:35:00

	TRACK 140 AUDIO
		PERFORMER "Depeche Mode"
		TITLE "Leave in Silence"
		REM DATE 1982
		INDEX 01 169:53:00

	TRACK 141 AUDIO
		PERFORMER "Blancmange"
		TITLE "Blind Vision"
		REM DATE 1982
		INDEX 01 171:05:00

	TRACK 142 AUDIO
		PERFORMER "Severed Heads"
		TITLE "Lamborghini"
		REM DATE 1982
		INDEX 01 172:29:00

	TRACK 143 AUDIO
		PERFORMER "Eurythmics"
		TITLE "Love is a Stranger"
		REM DATE 1982
		INDEX 01 173:40:00

	TRACK 144 AUDIO
		PERFORMER "Organ"
		TITLE "For Next"
		REM DATE 1982
		INDEX 01 175:10:00

	TRACK 145 AUDIO
		PERFORMER "Ronny"
		TITLE "To Have and Have Not"
		REM DATE 1982
		INDEX 01 176:27:00

	TRACK 146 AUDIO
		PERFORMER "Claudio Simonetti"
		TITLE "Flashing"
		REM DATE 1982
		INDEX 01 177:57:00

	TRACK 147 AUDIO
		PERFORMER "The Thing"
		TITLE "(Dialogue)"
		REM DATE 1982
		INDEX 01 178:51:00

	TRACK 148 AUDIO
		PERFORMER "Divine"
		TITLE "Native Love"
		REM DATE 1982
		INDEX 01 179:39:00

	TRACK 149 AUDIO
		PERFORMER "Patrick Cowley"
		TITLE "Mind Warp"
		REM DATE 1982
		INDEX 01 180:59:00

	TRACK 150 AUDIO
		PERFORMER "Future World Orchestra"
		TITLE "Mission Completed"
		REM DATE 1982
		INDEX 01 182:15:00

	TRACK 151 AUDIO
		PERFORMER "Vangelis"
		TITLE "Salome's Dance"
		REM DATE 1982
		INDEX 01 183:50:00

	TRACK 152 AUDIO
		PERFORMER "Mike Oldfield"
		TITLE "Foreign Affair"
		REM DATE 1983
		INDEX 01 184:58:00

	TRACK 153 AUDIO
		PERFORMER "Fredin Comp"
		TITLE "Gryning"
		REM DATE 1983
		INDEX 01 186:07:00

	TRACK 154 AUDIO
		PERFORMER "Ministry"
		TITLE "Work for Love"
		REM DATE 1983
		INDEX 01 187:37:00

	TRACK 155 AUDIO
		PERFORMER "The Pointer Sisters"
		TITLE "Neutron Dance"
		REM DATE 1983
		INDEX 01 188:44:00

	TRACK 156 AUDIO
		PERFORMER "The System"
		TITLE "You Are In My System"
		REM DATE 1983
		INDEX 01 189:57:00

	TRACK 157 AUDIO
		PERFORMER "Rah Band"
		TITLE "Messages From The Stars"
		REM DATE 1983
		INDEX 01 191:20:00

	TRACK 158 AUDIO
		PERFORMER "Plustwo"
		TITLE "Stop Fantasy"
		REM DATE 1983
		INDEX 01 192:37:00

	TRACK 159 AUDIO
		PERFORMER "Project Future"
		TITLE "Ray-Gun-Omics"
		REM DATE 1983
		INDEX 01 193:53:00

	TRACK 160 AUDIO
		PERFORMER "Doctor's Cat"
		TITLE "Feel The Drive"
		REM DATE 1983
		INDEX 01 194:53:00

	TRACK 161 AUDIO
		PERFORMER "Stephanie Mills"
		TITLE "Pilot Error"
		REM DATE 1983
		INDEX 01 195:58:00

	TRACK 162 AUDIO
		PERFORMER "Vivien Vee"
		TITLE "Higher"
		REM DATE 1983
		INDEX 01 197:08:00

	TRACK 163 AUDIO
		PERFORMER "Neon"
		TITLE "My Blues Is You"
		REM DATE 1983
		INDEX 01 198:39:00

	TRACK 164 AUDIO
		PERFORMER "Hipnosis"
		TITLE "Bormaz"
		REM DATE 1983
		INDEX 01 200:05:00

	TRACK 165 AUDIO
		PERFORMER "Earons"
		TITLE "Video Baby"
		REM DATE 1983
		INDEX 01 201:05:00

	TRACK 166 AUDIO
		PERFORMER "Charlie"
		TITLE "Spacer Woman"
		REM DATE 1983
		INDEX 01 202:28:00

	TRACK 167 AUDIO
		PERFORMER "Anne Clark"
		TITLE "Sleeper In Metropolis"
		REM DATE 1983
		INDEX 01 203:39:00

	TRACK 168 AUDIO
		PERFORMER "Laid Back"
		TITLE "White Horse"
		REM DATE 1983
		INDEX 01 204:26:00

	TRACK 169 AUDIO
		PERFORMER "Digital Emotion"
		TITLE "Get Up"
		REM DATE 1983
		INDEX 01 205:35:00

	TRACK 170 AUDIO
		PERFORMER "Digital Emotion"
		TITLE "Humanity"
		REM DATE 1983
		INDEX 01 207:00:00

	TRACK 171 AUDIO
		PERFORMER "Midnight Star"
		TITLE "Electricity"
		REM DATE 1983
		INDEX 01 208:20:00

	TRACK 172 AUDIO
		PERFORMER "Kano"
		TITLE "It's a War"
		REM DATE 1983
		INDEX 01 209:39:00

	TRACK 173 AUDIO
		PERFORMER "Brainstorm"
		TITLE "(Dialogue)"
		REM DATE 1983
		INDEX 01 211:00:00

	TRACK 174 AUDIO
		PERFORMER "Nightlife Unlimited"
		TITLE "I Love the Night in New York City"
		REM DATE 1983
		INDEX 01 212:29:00

	TRACK 175 AUDIO
		PERFORMER "Atelier Folie"
		TITLE "No Rhyme, No Reason"
		REM DATE 1983
		INDEX 01 213:46:00

	TRACK 176 AUDIO
		PERFORMER "The Jonzun Crew"
		TITLE "We Are the Jonzun Crew"
		REM DATE 1983
		INDEX 01 215:10:00

	TRACK 177 AUDIO
		PERFORMER "Lama"
		TITLE "Nineteen Ninety Three"
		REM DATE 1983
		INDEX 01 216:34:00

	TRACK 178 AUDIO
		PERFORMER "Eddy Grant"
		TITLE "Time Warp"
		REM DATE 1983
		INDEX 01 218:02:00

	TRACK 179 AUDIO
		PERFORMER "Future World Orchestra"
		TITLE "Captain Coke"
		REM DATE 1983
		INDEX 01 219:23:00

	TRACK 180 AUDIO
		PERFORMER "Tik and Tok"
		TITLE "Cool Running"
		REM DATE 1983
		INDEX 01 220:31:00

	TRACK 181 AUDIO
		PERFORMER "Trans-X"
		TITLE "Living On Video"
		REM DATE 1983
		INDEX 01 221:57:00

	TRACK 182 AUDIO
		PERFORMER "Lisa"
		TITLE "Rocket To Your Heart"
		REM DATE 1983
		INDEX 01 223:08:00

	TRACK 183 AUDIO
		PERFORMER "Boytronic"
		TITLE "You"
		REM DATE 1983
		INDEX 01 224:34:00

	TRACK 184 AUDIO
		PERFORMER "Styx"
		TITLE "Mr. Roboto"
		REM DATE 1983
		INDEX 01 225:44:00

	TRACK 185 AUDIO
		PERFORMER "Data"
		TITLE "Fall Out"
		REM DATE 1983
		INDEX 01 227:02:00

	TRACK 186 AUDIO
		PERFORMER "Invisible Zoo"
		TITLE "Nighttime"
		REM DATE 1983
		INDEX 01 228:22:00

	TRACK 187 AUDIO
		PERFORMER "Matia Bazar"
		TITLE "Elettrochoc"
		REM DATE 1983
		INDEX 01 229:51:00

	TRACK 188 AUDIO
		PERFORMER "Class Action"
		TITLE "Blast Off"
		REM DATE 1984
		INDEX 01 231:22:00

	TRACK 189 AUDIO
		PERFORMER "Repo Man"
		TITLE "(Dialogue)"
		REM DATE 1984
		INDEX 01 232:33:00

	TRACK 190 AUDIO
		PERFORMER "Howard Jones"
		TITLE "Human's Lib"
		REM DATE 1984
		INDEX 01 233:31:00

	TRACK 191 AUDIO
		PERFORMER "Saâda Bonaire"
		TITLE "Heart Over Head"
		REM DATE 1984
		INDEX 01 235:01:00

	TRACK 192 AUDIO
		PERFORMER "Midnight Star"
		TITLE "Operator"
		REM DATE 1984
		INDEX 01 236:07:00

	TRACK 193 AUDIO
		PERFORMER "Vicious Pink"
		TITLE "Cccan't You See"
		REM DATE 1984
		INDEX 01 237:15:00

	TRACK 194 AUDIO
		PERFORMER "Cyber People"
		TITLE "Polaris"
		REM DATE 1984
		INDEX 01 238:17:00

	TRACK 195 AUDIO
		PERFORMER "Bobby Broom"
		TITLE "Beat Freak"
		REM DATE 1984
		INDEX 01 239:32:00

	TRACK 196 AUDIO
		PERFORMER "Jyl"
		TITLE "Silicon Valley"
		REM DATE 1984
		INDEX 01 240:34:00

	TRACK 197 AUDIO
		PERFORMER "Cabaret Voltaire"
		TITLE "Sensoria"
		REM DATE 1984
		INDEX 01 241:56:00

	TRACK 198 AUDIO
		PERFORMER "Art Of Noise"
		TITLE "Beat Box"
		REM DATE 1984
		INDEX 01 243:06:00

	TRACK 199 AUDIO
		PERFORMER "Soma Holiday"
		TITLE "Shake Your Molecules"
		REM DATE 1984
		INDEX 01 244:26:00

	TRACK 200 AUDIO
		PERFORMER "Alphaville"
		TITLE "The Elevator"
		REM DATE 1984
		INDEX 01 245:46:00

	TRACK 201 AUDIO
		PERFORMER "Mantronix"
		TITLE "Needle To The Groove"
		REM DATE 1985
		INDEX 01 246:54:00

	TRACK 202 AUDIO
		PERFORMER "ZZ Top"
		TITLE "Sleeping Bag"
		REM DATE 1985
		INDEX 01 247:52:00

	TRACK 203 AUDIO
		PERFORMER "Paul Hardcastle"
		TITLE "Nineteen"
		REM DATE 1985
		INDEX 01 249:07:00

	TRACK 204 AUDIO
		PERFORMER "Man Parrish"
		TITLE "Cyborg Dance"
		REM DATE 1985
		INDEX 01 250:24:00

	TRACK 205 AUDIO
		PERFORMER "Clio"
		TITLE "Faces"
		REM DATE 1985
		INDEX 01 251:20:00

	TRACK 206 AUDIO
		PERFORMER "Tres"
		TITLE "Operator"
		REM DATE 1985
		INDEX 01 252:45:00

	TRACK 207 AUDIO
		PERFORMER "Atelier Folie"
		TITLE "Leave Me Alone"
		REM DATE 1985
		INDEX 01 253:59:00

	TRACK 208 AUDIO
		PERFORMER "Deux"
		TITLE "Paris Orly"
		REM DATE 1985
		INDEX 01 255:08:00

	TRACK 209 AUDIO
		PERFORMER "Lifeforce"
		TITLE "(Dialogue)"
		REM DATE 1985
		INDEX 01 256:11:00

	TRACK 210 AUDIO
		PERFORMER "J.S.R."
		TITLE "Les Voix De La Nuit"
		REM DATE 1985
		INDEX 01 257:08:00

	TRACK 211 AUDIO
		PERFORMER "Yello"
		TITLE "Sometimes"
		REM DATE 1985
		INDEX 01 258:17:00

	TRACK 212 AUDIO
		PERFORMER "Sigue Sigue Sputnik"
		TITLE "21st Century Boy"
		REM DATE 1986
		INDEX 01 259:37:00
